# 3ds Max Wavefront OBJ Exporter v0.97b - (c)2007 guruware
# File Created: 05.01.2017 21:42:59

#
# object ColorPlatform
#

v  1.2601 0.0000 -0.0000
v  1.5399 0.0000 -0.0000
v  1.6449 0.0000 0.1050
v  1.6449 0.0000 1.0950
v  1.5399 0.0000 1.2000
v  1.2601 0.0000 1.2000
v  1.1551 0.0000 1.0950
v  1.1551 0.0000 0.1050
v  1.2601 0.4000 1.2000
v  1.5399 0.4000 1.2000
v  1.6449 0.4000 1.0950
v  1.6449 0.4000 0.1050
v  1.5399 0.4000 -0.0000
v  1.2601 0.4000 -0.0000
v  1.1551 0.4000 0.1050
v  1.1551 0.4000 1.0950
v  1.6449 0.1050 1.2000
v  1.6449 0.2950 1.2000
v  1.1551 0.2950 1.2000
v  1.1551 0.1050 1.2000
v  2.8000 0.0000 1.0950
v  2.8000 0.0000 0.1050
v  2.8000 0.1050 -0.0000
v  2.8000 0.2950 -0.0000
v  2.8000 0.4000 0.1050
v  2.8000 0.4000 1.0950
v  2.8000 0.2950 1.2000
v  2.8000 0.1050 1.2000
v  1.1551 0.1050 -0.0000
v  1.1551 0.2950 -0.0000
v  1.6449 0.2950 -0.0000
v  1.6449 0.1050 -0.0000
v  0.0000 0.0000 0.1050
v  0.0000 0.0000 1.0950
v  0.0000 0.1050 1.2000
v  0.0000 0.2950 1.2000
v  0.0000 0.4000 1.0950
v  0.0000 0.4000 0.1050
v  0.0000 0.2950 -0.0000
v  0.0000 0.1050 -0.0000
v  1.7499 0.0000 -0.0000
v  2.6950 0.0000 -0.0000
v  2.6950 0.0000 1.2000
v  1.7499 0.0000 1.2000
v  1.0501 0.0000 1.2000
v  0.1050 0.0000 1.2000
v  0.1050 0.0000 -0.0000
v  1.0501 0.0000 -0.0000
v  1.7499 0.4000 1.2000
v  2.6950 0.4000 1.2000
v  2.6950 0.4000 -0.0000
v  1.7499 0.4000 -0.0000
v  1.0501 0.4000 -0.0000
v  0.1050 0.4000 -0.0000
v  0.1050 0.4000 1.2000
v  1.0501 0.4000 1.2000
# 56 vertices

vn 0.0000 -1.0000 -0.0000
vn 0.0000 1.0000 -0.0000
vn 0.0000 0.0000 1.0000
vn 1.0000 0.0000 -0.0000
vn 0.0000 0.0000 -1.0000
vn -1.0000 0.0000 -0.0000
vn -0.5774 -0.5774 0.5774
vn 0.5774 -0.5774 0.5774
vn -0.5774 -0.5774 -0.5774
vn 0.5774 -0.5774 -0.5774
vn -0.5774 0.5774 0.5774
vn 0.5774 0.5774 0.5774
vn -0.5774 0.5774 -0.5774
vn 0.5774 0.5774 -0.5774
# 14 vertex normals

vt 0.3217 0.3493 0.0000
vt 0.3906 0.3493 0.0000
vt 0.4164 0.3751 0.0000
vt 0.4164 0.6189 0.0000
vt 0.3906 0.6447 0.0000
vt 0.3217 0.6447 0.0000
vt 0.2958 0.6189 0.0000
vt 0.2958 0.3751 0.0000
vt 0.3261 0.0167 0.0000
vt 0.3917 0.0167 0.0000
vt 0.4207 0.0398 0.0000
vt 0.4207 0.2859 0.0000
vt 0.3917 0.3090 0.0000
vt 0.3261 0.3090 0.0000
vt 0.2971 0.2859 0.0000
vt 0.2971 0.0398 0.0000
vt 0.3122 0.7849 0.0000
vt 0.3811 0.7849 0.0000
vt 0.4069 0.8108 0.0000
vt 0.4069 0.8575 0.0000
vt 0.3811 0.8834 0.0000
vt 0.3122 0.8834 0.0000
vt 0.2864 0.8575 0.0000
vt 0.2864 0.8108 0.0000
vt 0.3394 0.8995 0.0000
vt 0.5831 0.8995 0.0000
vt 0.6090 0.9254 0.0000
vt 0.6090 0.9722 0.0000
vt 0.5831 0.9980 0.0000
vt 0.3394 0.9980 0.0000
vt 0.3136 0.9722 0.0000
vt 0.3136 0.9254 0.0000
vt 0.3122 0.6703 0.0000
vt 0.3811 0.6703 0.0000
vt 0.4069 0.6962 0.0000
vt 0.4069 0.7429 0.0000
vt 0.3811 0.7688 0.0000
vt 0.3122 0.7688 0.0000
vt 0.2864 0.7429 0.0000
vt 0.2864 0.6962 0.0000
vt 0.0278 0.8995 0.0000
vt 0.2716 0.8995 0.0000
vt 0.2974 0.9254 0.0000
vt 0.2974 0.9722 0.0000
vt 0.2716 0.9980 0.0000
vt 0.0278 0.9980 0.0000
vt 0.0020 0.9722 0.0000
vt 0.0020 0.9254 0.0000
vt 0.4423 0.3493 0.0000
vt 0.6749 0.3493 0.0000
vt 0.7008 0.3751 0.0000
vt 0.7008 0.6189 0.0000
vt 0.6749 0.6447 0.0000
vt 0.4423 0.6447 0.0000
vt 0.2700 0.6447 0.0000
vt 0.0373 0.6447 0.0000
vt 0.0115 0.6189 0.0000
vt 0.0115 0.3751 0.0000
vt 0.0373 0.3493 0.0000
vt 0.2700 0.3493 0.0000
vt 0.4498 0.0167 0.0000
vt 0.6805 0.0153 0.0000
vt 0.7064 0.0412 0.0000
vt 0.7064 0.2845 0.0000
vt 0.6805 0.3103 0.0000
vt 0.4498 0.3090 0.0000
vt 0.2680 0.3090 0.0000
vt 0.0373 0.3103 0.0000
vt 0.0114 0.2845 0.0000
vt 0.0114 0.0412 0.0000
vt 0.0373 0.0153 0.0000
vt 0.2680 0.0167 0.0000
vt 0.4328 0.7849 0.0000
vt 0.6655 0.7849 0.0000
vt 0.6913 0.8108 0.0000
vt 0.6913 0.8575 0.0000
vt 0.6655 0.8834 0.0000
vt 0.4328 0.8834 0.0000
vt 0.2605 0.8834 0.0000
vt 0.0278 0.8834 0.0000
vt 0.0020 0.8575 0.0000
vt 0.0020 0.8108 0.0000
vt 0.0278 0.7849 0.0000
vt 0.2605 0.7849 0.0000
vt 0.4328 0.6703 0.0000
vt 0.6655 0.6703 0.0000
vt 0.6913 0.6962 0.0000
vt 0.6913 0.7429 0.0000
vt 0.6655 0.7688 0.0000
vt 0.4328 0.7688 0.0000
vt 0.2605 0.7688 0.0000
vt 0.0278 0.7688 0.0000
vt 0.0020 0.7429 0.0000
vt 0.0020 0.6962 0.0000
vt 0.0278 0.6703 0.0000
vt 0.2605 0.6703 0.0000
vt 0.0020 0.6542 0.0000
vt 0.7102 0.6542 0.0000
vt 0.0020 0.3398 0.0000
vt 0.7102 0.3398 0.0000
vt 0.0020 0.0059 0.0000
vt 0.7158 0.0059 0.0000
vt 0.0020 0.3198 0.0000
vt 0.7158 0.3198 0.0000
vt 0.3053 0.3398 0.0000
vt 0.7427 0.6703 0.0000
vt 0.7333 0.7056 0.0000
vt 0.7074 0.6798 0.0000
vt 0.4069 0.6542 0.0000
vt 0.7427 0.7849 0.0000
vt 0.7333 0.8202 0.0000
vt 0.7074 0.7944 0.0000
vt 0.2971 0.0020 0.0000
vt 0.4207 0.0020 0.0000
vt 0.4207 0.3237 0.0000
vt 0.2971 0.3237 0.0000
vt 0.7358 0.3751 0.0000
vt 0.7264 0.3398 0.0000
vt 0.7617 0.3493 0.0000
vt 0.3053 0.6542 0.0000
vt 0.4069 0.3398 0.0000
vt 0.7414 0.0373 0.0000
vt 0.7319 0.0020 0.0000
vt 0.7673 0.0115 0.0000
# 124 texture coords

g ColorPlatform
f 1/1/1 2/2/1 3/3/1 
f 3/3/1 4/4/1 5/5/1 
f 5/5/1 6/6/1 7/7/1 
f 3/3/1 5/5/1 7/7/1 
f 1/1/1 3/3/1 7/7/1 
f 8/8/1 1/1/1 7/7/1 
f 9/9/2 10/10/2 11/11/2 
f 11/11/2 12/12/2 13/13/2 
f 13/13/2 14/14/2 15/15/2 
f 11/11/2 13/13/2 15/15/2 
f 9/9/2 11/11/2 15/15/2 
f 16/16/2 9/9/2 15/15/2 
f 6/17/3 5/18/3 17/19/3 
f 17/19/3 18/20/3 10/21/3 
f 10/21/3 9/22/3 19/23/3 
f 17/19/3 10/21/3 19/23/3 
f 6/17/3 17/19/3 19/23/3 
f 20/24/3 6/17/3 19/23/3 
f 21/25/4 22/26/4 23/27/4 
f 23/27/4 24/28/4 25/29/4 
f 21/25/4 23/27/4 25/29/4 
f 25/29/4 26/30/4 27/31/4 
f 21/25/4 25/29/4 27/31/4 
f 28/32/4 21/25/4 27/31/4 
f 2/33/5 1/34/5 29/35/5 
f 29/35/5 30/36/5 14/37/5 
f 14/37/5 13/38/5 31/39/5 
f 29/35/5 14/37/5 31/39/5 
f 2/33/5 29/35/5 31/39/5 
f 32/40/5 2/33/5 31/39/5 
f 33/41/6 34/42/6 35/43/6 
f 35/43/6 36/44/6 37/45/6 
f 33/41/6 35/43/6 37/45/6 
f 37/45/6 38/46/6 39/47/6 
f 33/41/6 37/45/6 39/47/6 
f 40/48/6 33/41/6 39/47/6 
f 41/49/1 42/50/1 22/51/1 
f 22/51/1 21/52/1 43/53/1 
f 43/53/1 44/54/1 4/4/1 
f 22/51/1 43/53/1 4/4/1 
f 41/49/1 22/51/1 4/4/1 
f 3/3/1 41/49/1 4/4/1 
f 45/55/1 46/56/1 34/57/1 
f 34/57/1 33/58/1 47/59/1 
f 47/59/1 48/60/1 8/8/1 
f 34/57/1 47/59/1 8/8/1 
f 45/55/1 34/57/1 8/8/1 
f 7/7/1 45/55/1 8/8/1 
f 49/61/2 50/62/2 26/63/2 
f 26/63/2 25/64/2 51/65/2 
f 51/65/2 52/66/2 12/12/2 
f 26/63/2 51/65/2 12/12/2 
f 49/61/2 26/63/2 12/12/2 
f 11/11/2 49/61/2 12/12/2 
f 53/67/2 54/68/2 38/69/2 
f 38/69/2 37/70/2 55/71/2 
f 55/71/2 56/72/2 16/16/2 
f 38/69/2 55/71/2 16/16/2 
f 53/67/2 38/69/2 16/16/2 
f 15/15/2 53/67/2 16/16/2 
f 44/73/3 43/74/3 28/75/3 
f 28/75/3 27/76/3 50/77/3 
f 50/77/3 49/78/3 18/20/3 
f 28/75/3 50/77/3 18/20/3 
f 44/73/3 28/75/3 18/20/3 
f 17/19/3 44/73/3 18/20/3 
f 56/79/3 55/80/3 36/81/3 
f 36/81/3 35/82/3 46/83/3 
f 46/83/3 45/84/3 20/24/3 
f 36/81/3 46/83/3 20/24/3 
f 56/79/3 36/81/3 20/24/3 
f 19/23/3 56/79/3 20/24/3 
f 48/85/5 47/86/5 40/87/5 
f 40/87/5 39/88/5 54/89/5 
f 54/89/5 53/90/5 30/36/5 
f 40/87/5 54/89/5 30/36/5 
f 48/85/5 40/87/5 30/36/5 
f 29/35/5 48/85/5 30/36/5 
f 52/91/5 51/92/5 24/93/5 
f 24/93/5 23/94/5 42/95/5 
f 42/95/5 41/96/5 32/40/5 
f 24/93/5 42/95/5 32/40/5 
f 52/91/5 24/93/5 32/40/5 
f 31/39/5 52/91/5 32/40/5 
f 34/57/7 46/56/7 35/97/7 
f 21/52/8 28/98/8 43/53/8 
f 33/58/9 40/99/9 47/59/9 
f 22/51/10 42/50/10 23/100/10 
f 37/70/11 36/101/11 55/71/11 
f 26/63/12 50/62/12 27/102/12 
f 38/69/13 54/68/13 39/103/13 
f 25/64/14 24/104/14 51/65/14 
f 8/8/10 48/60/10 29/105/10 
f 2/106/10 32/107/10 3/108/10 
f 4/4/7 44/54/7 17/109/7 
f 6/110/7 20/111/7 7/112/7 
f 9/9/11 16/16/11 19/113/11 
f 18/114/11 49/61/11 11/11/11 
f 13/13/14 12/12/14 31/115/14 
f 30/116/14 53/67/14 15/15/14 
f 11/11/12 10/10/12 18/114/12 
f 17/117/8 5/118/8 4/119/8 
f 20/120/8 45/55/8 7/7/8 
f 16/16/12 56/72/12 19/113/12 
f 15/15/13 14/14/13 30/116/13 
f 12/12/13 52/66/13 31/115/13 
f 32/121/9 41/49/9 3/3/9 
f 29/122/9 1/123/9 8/124/9 
# 108 faces

